<svg width="735" height="735" viewBox="0 0 735 735" fill="none" xmlns="http://www.w3.org/2000/svg">
<rect width="734.717" height="734.717" rx="367.358" fill="black"/>
<path d="M479.547 384.711C483.211 380.904 478.319 380.476 476.387 379.229C444.544 358.768 406.476 337.878 422.388 291.845C449.616 213.035 576.467 257.984 545.489 350.954C509.611 458.629 294.348 438.072 215.386 391.658C208.163 387.414 177.851 366.638 174.121 361.537C165.85 350.222 177.29 334.909 189.719 338.335C194.001 339.515 219.021 361.823 227.691 367.038C293.558 406.619 378.782 411.054 452.052 392.943C456.021 391.963 478.567 385.758 479.556 384.72L479.547 384.711ZM474.018 276.894C456.849 279.739 441.641 301.286 446.247 318.321C450.377 333.586 493.299 365.772 507.403 362.241C516.472 359.976 524.305 330.921 523.953 322.071C523.011 298.364 498.628 272.821 474.018 276.894Z" fill="#E6E93A"/>
<path d="M441.977 165.974C470.395 160.074 477.656 207.497 443.909 205.089C420.679 203.433 420.412 170.447 441.977 165.974Z" fill="#E6E93A"/>
<path d="M269.727 190.623C293.804 187.482 302.589 225.55 276.274 229.471C247.448 233.763 244.659 193.887 269.727 190.623Z" fill="#E6E93A"/>
<path d="M147.718 546.08C145.796 545.414 144.949 544.205 144.959 542.159C144.997 528.702 145.044 515.245 145.082 501.788C141.285 501.065 137.478 500.303 133.681 499.485C131.74 499.066 130.893 498.019 130.893 496.078V486.666C130.893 484.724 131.749 484.001 133.691 484.296C147.385 486.39 161.08 487.931 174.775 489.007C176.717 489.159 177.573 490.225 177.554 492.509C177.525 496.192 177.506 499.875 177.478 503.558C177.459 505.842 176.602 506.746 174.661 506.489C170.854 505.995 167.047 505.462 163.25 504.881C163.164 519.204 163.088 533.517 163.003 547.84C162.993 550.029 162.137 550.743 160.205 550.143C156.036 548.859 151.877 547.507 147.728 546.08H147.718Z" fill="#E6E93A"/>
<path d="M194.523 559.136C190.726 558.308 186.929 557.433 183.141 556.491C181.209 556.015 180.362 554.778 180.381 552.475C180.438 544.366 180.495 536.258 180.562 528.149C180.591 524.457 181.552 520.031 183.693 513.807C185.996 507.069 188.309 500.189 190.621 493.165C191.259 491.033 192.515 490.148 194.618 490.243C201.594 490.577 208.57 490.805 215.546 490.938C217.573 490.976 218.801 492.004 219.41 494.336C221.599 502.025 223.788 509.81 225.986 517.671C228.023 524.961 228.917 530.186 228.879 534.297C228.803 543.357 228.727 552.408 228.651 561.468C228.632 564.038 227.766 565.056 225.815 564.78C221.903 564.209 217.992 563.6 214.081 562.924C211.987 562.562 211.064 561.297 211.083 558.822C211.121 554.188 211.159 549.553 211.197 544.909C206.61 544.261 202.032 543.557 197.455 542.777C197.416 547.269 197.378 551.761 197.34 556.262C197.321 558.67 196.455 559.555 194.523 559.127V559.136ZM198.368 525.361C202.432 525.875 206.496 526.332 210.569 526.75C209.398 521.602 208.218 516.482 207.038 511.4C206.657 510.191 206.201 509.667 205.572 509.62C204.925 509.572 204.278 509.525 203.631 509.468C203.012 509.42 202.537 509.867 202.137 511C200.881 515.825 199.624 520.612 198.368 525.342V525.361Z" fill="#E6E93A"/>
<path d="M239.575 566.579C237.624 566.351 236.777 565.095 236.805 562.487C236.843 558.414 236.872 554.341 236.91 550.267C236.929 547.66 237.795 546.584 239.746 546.746C246.732 547.327 253.717 547.764 260.702 548.088C262.025 548.155 262.739 546.765 262.748 545.033C262.768 542.54 262.073 541.54 260.75 541.274C256.858 540.37 252.965 539.447 249.082 538.495C241.773 536.601 237.062 532.081 237.158 520.413C237.186 516.758 237.215 513.104 237.253 509.449C237.348 497.582 243.401 491.101 253.508 490.825C260.769 490.653 268.03 490.406 275.292 490.092C277.233 490.006 278.08 491.186 278.071 493.946C278.042 498.334 278.014 502.711 277.985 507.099C277.966 509.859 277.1 511.096 275.159 511.134C269.106 511.248 263.063 511.305 257.019 511.296C255.696 511.296 254.907 512.58 254.897 514.512C254.878 516.444 255.649 517.748 256.972 517.976C260.836 518.738 264.699 519.48 268.563 520.203C275.872 521.717 280.678 526.075 280.602 538.514C280.574 542.397 280.555 546.27 280.526 550.153C280.45 562.801 274.302 569.511 264.233 568.816C256.011 568.264 247.797 567.531 239.594 566.579H239.575Z" fill="#E6E93A"/>
<path d="M302.028 570.091C300.067 570.091 299.22 568.834 299.23 566.017C299.325 547.545 299.43 529.082 299.525 510.61C295.709 510.772 291.892 510.905 288.076 511.029C286.125 511.086 285.278 509.887 285.297 507.098C285.326 502.606 285.354 498.114 285.383 493.622C285.402 490.843 286.268 489.568 288.209 489.473C301.904 488.759 315.599 487.845 329.294 486.856C331.235 486.713 332.092 487.922 332.082 490.796C332.073 495.44 332.054 500.084 332.044 504.728C332.044 507.603 331.178 508.935 329.227 509.049C325.411 509.287 321.585 509.515 317.769 509.725C317.693 528.435 317.617 547.145 317.54 565.856C317.531 568.711 316.665 569.995 314.704 570.024C310.479 570.091 306.253 570.119 302.028 570.11V570.091Z" fill="#E6E93A"/>
<path d="M342.255 569.073C340.294 569.177 339.438 567.94 339.447 565.057C339.504 540.113 339.562 515.178 339.619 490.235C339.619 487.351 340.485 486.009 342.426 485.866C354.456 484.943 366.494 483.982 378.524 483.03C380.465 482.878 381.331 484.087 381.331 486.98C381.331 491.5 381.341 496.021 381.35 500.532C381.35 503.425 380.494 504.777 378.552 504.929C371.386 505.509 364.21 506.08 357.044 506.632C357.044 509.611 357.044 512.58 357.044 515.559C362.117 515.178 367.189 514.779 372.252 514.37C374.203 514.208 375.06 515.416 375.06 518.319C375.06 522.459 375.06 526.589 375.06 530.72C375.06 533.622 374.203 534.964 372.252 535.126C367.17 535.545 362.098 535.935 357.016 536.297C357.016 539.618 357.016 542.939 357.016 546.261C364.21 545.747 371.405 545.176 378.6 544.557C380.551 544.386 381.417 545.585 381.417 548.478C381.417 552.999 381.426 557.519 381.436 562.03C381.436 564.923 380.579 566.284 378.619 566.456C366.504 567.531 354.389 568.416 342.274 569.044L342.255 569.073Z" fill="#E6E93A"/>
<path d="M393.483 565.066C391.523 565.266 390.666 564.077 390.657 561.183C390.609 536.211 390.562 511.229 390.523 486.257C390.523 483.364 391.37 482.031 393.312 481.879C401.582 481.241 409.862 480.632 418.132 480.071C428.325 479.386 433.093 484.544 433.159 496.402C433.159 498.21 433.178 500.018 433.188 501.826C433.216 508.155 431.76 512.238 428.648 514.446C435.358 514.76 438.508 520.004 438.565 531.024C438.584 534.479 438.603 537.934 438.622 541.379C438.689 553.97 433.959 560.441 423.547 561.716C413.526 562.915 403.504 564.038 393.483 565.057V565.066ZM408.12 512.714C410.328 512.523 412.536 512.324 414.754 512.133C416.781 511.952 417.713 510.392 417.704 507.299C417.704 506.233 417.704 505.167 417.694 504.101C417.685 501.017 416.743 499.609 414.715 499.771C412.508 499.952 410.3 500.132 408.092 500.313C408.101 504.453 408.12 508.583 408.13 512.714H408.12ZM408.225 543.958C411.613 543.615 415.001 543.263 418.389 542.901C420.416 542.683 421.349 541.103 421.339 538.019C421.339 536.535 421.33 535.05 421.32 533.575C421.311 530.501 420.368 529.216 418.332 529.416C414.944 529.749 411.565 530.073 408.177 530.396C408.196 534.917 408.206 539.437 408.225 543.948V543.958Z" fill="#E6E93A"/>
<path d="M471.148 557.234C451.782 559.917 446.956 551.324 446.88 537.667C446.766 519.223 446.661 500.789 446.547 482.345C446.528 479.547 447.375 478.272 449.326 478.177C453.399 477.967 457.473 477.777 461.546 477.606C463.487 477.52 464.353 478.7 464.372 481.441C464.487 498.105 464.61 514.779 464.725 531.443C464.744 534.403 465.695 536.496 471.158 535.897C476.697 535.288 477.61 533.032 477.591 530.12C477.468 513.722 477.344 497.325 477.22 480.937C477.201 478.234 477.972 477.025 479.99 476.978C483.93 476.873 487.87 476.797 491.819 476.74C493.761 476.711 494.627 477.863 494.655 480.489C494.798 497.829 494.941 515.169 495.083 532.509C495.188 545.29 490.515 554.531 471.167 557.253L471.148 557.234Z" fill="#E6E93A"/>
<path d="M508.382 550.591C506.441 550.848 505.575 549.83 505.556 547.251C505.366 524.953 505.185 502.645 504.994 480.347C504.975 477.768 505.822 476.626 507.764 476.635C516.5 476.664 525.246 476.826 533.983 477.159C547.059 477.739 553.169 484.258 553.264 497.058C553.34 506.709 553.407 516.349 553.483 525.999C553.578 538.828 547.592 545.528 534.564 547.213C525.846 548.297 517.129 549.44 508.382 550.591ZM523.067 529.797C526.151 529.521 529.234 529.254 532.308 528.997C534.792 528.788 535.943 527.237 535.915 523.944C535.848 516.092 535.782 508.231 535.725 500.38C535.696 497.182 534.516 495.736 532.032 495.745C528.948 495.774 525.865 495.812 522.782 495.869C522.877 507.175 522.972 518.481 523.067 529.787V529.797Z" fill="#E6E93A"/>
<path d="M564.815 543.663C562.883 543.872 562.027 542.977 562.008 540.703C561.979 537.172 561.96 533.641 561.932 530.101C561.913 527.836 562.76 526.789 564.692 526.675C571.629 526.275 578.558 525.933 585.486 525.676C586.799 525.628 587.494 524.515 587.485 523.182C587.485 521.269 586.78 520.527 585.467 520.384C581.603 519.87 577.73 519.356 573.856 518.842C566.576 517.834 561.818 514.37 561.751 504.186C561.732 501.017 561.703 497.848 561.684 494.679C561.608 484.306 567.566 479.1 577.682 480.232C584.944 481.003 592.205 481.926 599.466 482.992C601.408 483.278 602.264 484.277 602.274 486.247C602.274 489.369 602.274 492.49 602.274 495.612C602.274 497.572 601.427 498.362 599.485 498.191C593.461 497.667 587.437 497.23 581.413 496.887C580.09 496.811 579.319 497.791 579.329 499.342C579.329 500.884 580.119 501.95 581.432 502.169C585.286 502.892 589.141 503.625 592.985 504.358C600.275 505.9 605.072 509.335 605.062 518.005V526.171C605.062 534.964 599.076 540.227 589.16 541.198C581.051 541.931 572.933 542.758 564.796 543.644L564.815 543.663Z" fill="#E6E93A"/>
</svg>
