<svg width="101" height="100" viewBox="0 0 101 100" fill="none" xmlns="http://www.w3.org/2000/svg">
<g clip-path="url(#clip0_549_1533)">
<path d="M50.5 54.6875C53.0888 54.6875 55.1875 52.5888 55.1875 50C55.1875 47.4112 53.0888 45.3125 50.5 45.3125C47.9112 45.3125 45.8125 47.4112 45.8125 50C45.8125 52.5888 47.9112 54.6875 50.5 54.6875Z" fill="black"/>
<path d="M33.3125 54.6875C35.9013 54.6875 38 52.5888 38 50C38 47.4112 35.9013 45.3125 33.3125 45.3125C30.7237 45.3125 28.625 47.4112 28.625 50C28.625 52.5888 30.7237 54.6875 33.3125 54.6875Z" fill="black"/>
<path d="M67.6875 54.6875C70.2763 54.6875 72.375 52.5888 72.375 50C72.375 47.4112 70.2763 45.3125 67.6875 45.3125C65.0987 45.3125 63 47.4112 63 50C63 52.5888 65.0987 54.6875 67.6875 54.6875Z" fill="black"/>
<path d="M31.722 82.4655C39.5991 87.0244 48.8653 88.5631 57.7931 86.7946C66.7208 85.0261 74.7007 80.0711 80.245 72.8536C85.7893 65.636 88.5195 56.6485 87.9267 47.5666C87.3338 38.4847 83.4583 29.9284 77.0228 23.4928C70.5873 17.0573 62.0309 13.1818 52.949 12.589C43.8672 11.9961 34.8796 14.7263 27.662 20.2706C20.4445 25.8149 15.4896 33.7948 13.7211 42.7226C11.9526 51.6503 13.4912 60.9165 18.0502 68.7936L13.1634 83.3834C12.9798 83.9341 12.9532 84.5249 13.0865 85.0898C13.2198 85.6547 13.5078 86.1714 13.9182 86.5818C14.3286 86.9922 14.8453 87.2802 15.4102 87.4135C15.9751 87.5468 16.5659 87.5202 17.1166 87.3366L31.722 82.4655Z" stroke="black" stroke-width="6.05556" stroke-linecap="round" stroke-linejoin="round"/>
</g>
<defs>
<clipPath id="clip0_549_1533">
<rect width="100" height="100" fill="white" transform="translate(0.5)"/>
</clipPath>
</defs>
</svg>
