<svg width="721" height="631" viewBox="0 0 721 631" fill="none" xmlns="http://www.w3.org/2000/svg">
<path d="M530.144 341.586C535.716 335.655 528.277 334.988 525.34 333.046C476.92 301.167 419.036 268.621 443.232 196.9C484.633 74.1146 677.516 144.145 630.413 288.994C575.858 456.751 248.539 424.724 128.474 352.41C117.49 345.797 71.4001 313.429 65.7274 305.482C53.1522 287.852 70.5462 263.995 89.4453 269.332C95.9573 271.171 134.001 305.926 147.185 314.052C247.338 375.719 376.926 382.629 488.338 354.412C494.372 352.885 528.654 343.217 530.159 341.601L530.144 341.586ZM521.737 173.607C495.631 178.04 472.506 211.609 479.51 238.15C485.791 261.934 551.055 312.08 572.501 306.579C586.291 303.05 598.201 257.782 597.666 243.992C596.233 207.057 559.158 167.26 521.737 173.607Z" fill="#E6E93A"/>
<path d="M473.015 0.792611C516.225 -8.40039 527.267 65.4847 475.953 61.7333C440.629 59.1533 440.224 7.7615 473.015 0.792611Z" fill="#E6E93A"/>
<path d="M211.104 39.1943C247.716 34.3012 261.073 93.6109 221.06 99.7198C177.228 106.407 172.988 44.2801 211.104 39.1943Z" fill="#E6E93A"/>
<path d="M25.5847 593C22.6616 591.962 21.3736 590.079 21.3881 586.891C21.446 565.925 21.5039 544.959 21.5762 523.993C15.8023 522.866 10.0139 521.68 4.24003 520.405C1.28795 519.752 0 518.121 0 515.096C0 510.203 0 505.31 0 500.432C0 497.407 1.30239 496.28 4.25447 496.74C25.0782 500.002 45.9019 502.389 66.7256 504.08C69.6777 504.317 70.9656 505.978 70.9511 509.536C70.9077 515.274 70.8788 521.013 70.8354 526.751C70.8065 530.309 69.5041 531.718 66.552 531.318C60.7636 530.547 54.9752 529.716 49.2013 528.812C49.071 551.127 48.9553 573.428 48.8251 595.743C48.8106 599.153 47.5082 600.265 44.5706 599.331C38.2323 597.329 31.9085 595.224 25.5991 593H25.5847Z" fill="#E6E93A"/>
<path d="M96.7534 613.343C90.9795 612.053 85.2056 610.689 79.4461 609.221C76.5085 608.48 75.2206 606.552 75.2495 602.964C75.3363 590.331 75.4232 577.698 75.5245 565.065C75.5679 559.312 77.0294 552.417 80.2854 542.72C83.7874 532.222 87.3038 521.502 90.8203 510.559C91.7898 507.238 93.7 505.859 96.8981 506.007C107.505 506.526 118.113 506.882 128.72 507.09C131.802 507.149 133.669 508.75 134.595 512.383C137.923 524.364 141.252 536.493 144.594 548.74C147.691 560.083 149.051 568.238 148.994 574.643C148.878 588.759 148.762 602.86 148.646 616.976C148.617 620.979 147.3 622.566 144.334 622.136C138.386 621.246 132.439 620.297 126.491 619.244C123.308 618.681 121.904 616.709 121.933 612.854C121.991 605.633 122.049 598.412 122.107 591.176C115.131 590.168 108.171 589.071 101.21 587.855C101.153 594.853 101.095 601.852 101.037 608.865C101.008 612.616 99.7055 613.995 96.7534 613.328V613.343ZM102.6 560.721C108.779 561.521 114.958 562.233 121.151 562.885C119.371 554.864 117.577 546.886 115.783 538.969C115.204 537.086 114.509 536.27 113.554 536.196C112.57 536.122 111.586 536.048 110.602 535.959C109.661 535.885 108.938 536.581 108.33 538.346C106.42 545.863 104.51 553.322 102.6 560.691V560.721Z" fill="#E6E93A"/>
<path d="M165.256 624.936C162.29 624.581 161.002 622.623 161.045 618.561C161.103 612.214 161.146 605.868 161.204 599.522C161.233 595.46 162.55 593.784 165.517 594.036C176.138 594.926 186.76 595.623 197.382 596.127C199.393 596.216 200.478 594.066 200.493 591.367C200.522 587.482 199.465 585.925 197.454 585.51C191.535 584.102 185.617 582.663 179.713 581.181C168.599 578.23 161.436 571.172 161.58 553.009C161.624 547.315 161.667 541.621 161.725 535.927C161.87 517.438 171.073 507.34 186.442 506.91C197.483 506.643 208.524 506.258 219.566 505.768C222.518 505.635 223.806 507.474 223.791 511.774C223.748 518.609 223.704 525.43 223.661 532.265C223.632 536.565 222.315 538.493 219.363 538.552C210.159 538.73 200.97 538.819 191.767 538.804C189.755 538.804 188.554 540.806 188.54 543.816C188.511 546.826 189.683 548.857 191.695 549.213C197.57 550.399 203.445 551.555 209.32 552.682C220.434 555.04 227.742 561.831 227.626 581.21C227.583 587.26 227.554 593.31 227.51 599.344C227.394 619.065 218.046 629.503 202.736 628.421C190.233 627.561 177.745 626.419 165.271 624.936H165.256Z" fill="#E6E93A"/>
<path d="M260.216 630.407C257.235 630.407 255.947 628.45 255.962 624.061C256.107 595.281 256.266 566.501 256.41 537.736C250.608 537.988 244.805 538.195 239.002 538.388C236.035 538.477 234.747 536.609 234.776 532.264C234.82 525.266 234.863 518.267 234.907 511.269C234.936 506.939 236.252 504.952 239.204 504.804C260.028 503.692 280.852 502.269 301.676 500.727C304.628 500.504 305.93 502.387 305.916 506.865C305.901 514.101 305.872 521.337 305.858 528.572C305.858 533.065 304.541 535.111 301.574 535.304C295.771 535.675 289.954 536.031 284.151 536.357C284.036 565.507 283.92 594.658 283.804 623.809C283.79 628.257 282.473 630.244 279.492 630.303C273.067 630.407 266.641 630.452 260.216 630.437V630.407Z" fill="#E6E93A"/>
<path d="M321.386 628.824C318.405 628.972 317.102 627.06 317.117 622.567C317.204 583.704 317.29 544.856 317.377 505.994C317.377 501.501 318.694 499.425 321.646 499.188C339.938 497.75 358.243 496.252 376.535 494.769C379.501 494.532 380.789 496.415 380.804 500.923C380.804 507.966 380.818 514.994 380.832 522.037C380.832 526.545 379.53 528.65 376.578 528.887C365.681 529.792 354.77 530.681 343.859 531.541C343.859 536.182 343.859 540.808 343.859 545.449C351.572 544.856 359.285 544.234 366.984 543.596C369.95 543.344 371.253 545.227 371.253 549.749C371.253 556.185 371.253 562.634 371.253 569.07C371.253 573.577 369.95 575.683 366.984 575.935C359.256 576.587 351.543 577.195 343.816 577.758C343.816 582.933 343.816 588.108 343.816 593.283C354.756 592.482 365.696 591.592 376.636 590.629C379.617 590.362 380.919 592.23 380.919 596.738C380.919 603.781 380.934 610.824 380.948 617.852C380.948 622.359 379.646 624.48 376.665 624.747C358.243 626.422 339.822 627.816 321.4 628.78L321.386 628.824Z" fill="#E6E93A"/>
<path d="M399.283 622.581C396.302 622.893 394.999 621.039 394.985 616.532C394.912 577.625 394.84 538.703 394.782 499.795C394.782 495.288 396.07 493.212 399.022 492.975C411.612 491.981 424.187 491.032 436.763 490.158C452.261 489.09 459.511 497.126 459.612 515.601C459.612 518.419 459.641 521.236 459.656 524.053C459.713 533.913 457.485 540.274 452.753 543.714C462.955 544.204 467.745 552.373 467.832 569.544C467.861 574.926 467.89 580.308 467.919 585.676C468.02 605.292 460.828 615.39 444.997 617.362C429.759 619.23 414.521 620.98 399.283 622.566V622.581ZM421.539 541.016C424.896 540.719 428.254 540.408 431.625 540.111C434.708 539.829 436.126 537.383 436.111 532.594C436.111 530.933 436.111 529.272 436.097 527.612C436.082 522.808 434.65 520.613 431.567 520.865C428.21 521.147 424.853 521.429 421.496 521.71C421.51 528.145 421.539 534.595 421.554 541.045L421.539 541.016ZM421.698 589.694C426.85 589.16 432.002 588.612 437.153 588.048C440.236 587.707 441.654 585.246 441.639 580.457C441.639 578.144 441.625 575.83 441.61 573.532C441.596 568.743 440.163 566.741 437.066 567.053C431.915 567.572 426.778 568.076 421.626 568.58C421.655 575.623 421.669 582.666 421.698 589.694Z" fill="#E6E93A"/>
<path d="M517.381 610.376C487.933 614.558 480.596 601.169 480.466 579.891C480.292 551.156 480.133 522.435 479.959 493.7C479.93 489.34 481.232 487.353 484.185 487.205C490.378 486.879 496.572 486.582 502.765 486.315C505.732 486.197 507.034 488.021 507.063 492.291C507.237 518.254 507.425 544.231 507.599 570.194C507.628 574.805 509.075 578.067 517.381 577.133C525.803 576.184 527.192 572.67 527.163 568.133C526.975 542.586 526.787 517.038 526.599 491.505C526.57 487.309 527.728 485.411 530.81 485.337C536.801 485.174 542.792 485.055 548.797 484.966C551.749 484.922 553.066 486.716 553.11 490.808C553.327 517.824 553.544 544.839 553.761 571.855C553.92 591.753 546.829 606.18 517.395 610.406L517.381 610.376Z" fill="#E6E93A"/>
<path d="M573.992 600.028C571.04 600.428 569.723 598.841 569.679 594.823C569.39 560.083 569.115 525.327 568.826 490.586C568.797 486.568 570.085 484.789 573.037 484.804C586.321 484.848 599.62 485.1 612.904 485.619C632.787 486.509 642.078 496.681 642.222 516.623C642.324 531.658 642.44 546.679 642.555 561.714C642.7 581.701 633.598 592.139 613.801 594.764C600.561 596.454 587.291 598.233 573.992 600.028ZM596.321 567.63C601.009 567.2 605.698 566.785 610.372 566.384C614.149 566.058 615.9 563.641 615.856 558.511C615.755 546.278 615.654 534.046 615.567 521.798C615.523 516.816 613.729 514.562 609.952 514.577C605.264 514.622 600.575 514.681 595.886 514.77C596.031 532.385 596.176 550 596.321 567.615V567.63Z" fill="#E6E93A"/>
<path d="M659.804 589.234C656.866 589.56 655.564 588.166 655.535 584.623C655.492 579.122 655.463 573.621 655.419 568.105C655.39 564.576 656.678 562.945 659.616 562.767C670.165 562.144 680.7 561.61 691.235 561.21C693.232 561.136 694.288 559.416 694.274 557.325C694.274 554.345 693.203 553.188 691.206 552.966C685.331 552.165 679.441 551.365 673.551 550.564C662.481 548.992 655.26 543.595 655.144 527.73C655.115 522.792 655.087 517.855 655.043 512.917C654.927 496.755 663.986 488.645 679.369 490.409C690.41 491.61 701.451 493.048 712.493 494.709C715.459 495.169 716.747 496.711 716.762 499.78C716.762 504.643 716.762 509.507 716.762 514.37C716.762 517.44 715.474 518.655 712.522 518.388C703.362 517.573 694.201 516.891 685.041 516.357C683.03 516.239 681.858 517.781 681.872 520.183C681.872 522.585 683.073 524.245 685.07 524.586C690.931 525.713 696.792 526.855 702.638 527.997C713.723 530.399 721.002 535.751 721.002 549.259C721.002 553.5 721.002 557.74 721.002 561.981C721.002 575.682 711.9 583.881 696.821 585.394C684.492 586.535 672.148 587.825 659.775 589.204L659.804 589.234Z" fill="#E6E93A"/>
</svg>
