<svg width="86" height="86" viewBox="0 0 86 86" fill="none" xmlns="http://www.w3.org/2000/svg">
<path d="M64.666 26.334C67.4274 26.334 69.666 24.0954 69.666 21.334C69.666 18.5726 67.4274 16.334 64.666 16.334C61.9046 16.334 59.666 18.5726 59.666 21.334C59.666 24.0954 61.9046 26.334 64.666 26.334Z" fill="black"/>
<path d="M63 3H23C11.9543 3 3 11.9543 3 23V63C3 74.0457 11.9543 83 23 83H63C74.0457 83 83 74.0457 83 63V23C83 11.9543 74.0457 3 63 3Z" stroke="black" stroke-width="5.36667" stroke-linecap="round" stroke-linejoin="round"/>
<path d="M42.9997 59.6668C52.2044 59.6668 59.6663 52.2049 59.6663 43.0002C59.6663 33.7954 52.2044 26.3335 42.9997 26.3335C33.7949 26.3335 26.333 33.7954 26.333 43.0002C26.333 52.2049 33.7949 59.6668 42.9997 59.6668Z" stroke="black" stroke-width="5.36667" stroke-miterlimit="10"/>
</svg>
