<svg width="100" height="100" viewBox="0 0 100 100" fill="none" xmlns="http://www.w3.org/2000/svg">
<g clip-path="url(#clip0_549_1550)">
<path d="M34.375 90.625H65.625" stroke="black" stroke-width="6.05556" stroke-linecap="round" stroke-linejoin="round"/>
<path d="M30.7427 65.2343C27.0277 62.3322 24.0187 58.626 21.9417 54.3941C19.8646 50.1623 18.7736 45.5147 18.7505 40.8007C18.6567 23.8632 32.313 9.76552 49.2466 9.37489C55.8091 9.21593 62.2551 11.1276 67.6699 14.8387C73.0847 18.5498 77.1933 23.8718 79.4128 30.0497C81.6324 36.2276 81.8501 42.9475 80.0351 49.256C78.22 55.5646 74.4645 61.1414 69.3013 65.1952C68.1624 66.0782 67.2396 67.2089 66.6027 68.5016C65.9658 69.7943 65.6316 71.2151 65.6255 72.6561V74.9999C65.6255 75.8287 65.2962 76.6236 64.7102 77.2096C64.1241 77.7957 63.3293 78.1249 62.5005 78.1249H37.5005C36.6717 78.1249 35.8768 77.7957 35.2908 77.2096C34.7047 76.6236 34.3755 75.8287 34.3755 74.9999V72.6561C34.374 71.2243 34.046 69.8116 33.4165 68.5255C32.787 67.2394 31.8726 66.1138 30.7427 65.2343Z" stroke="black" stroke-width="6.05556" stroke-linecap="round" stroke-linejoin="round"/>
<path d="M53.125 21.875C60.9375 23.1914 67.4258 29.6875 68.75 37.5" stroke="black" stroke-width="6.05556" stroke-linecap="round" stroke-linejoin="round"/>
</g>
<defs>
<clipPath id="clip0_549_1550">
<rect width="100" height="100" fill="white"/>
</clipPath>
</defs>
</svg>
