<svg width="122" height="40" viewBox="0 0 122 40" fill="none" xmlns="http://www.w3.org/2000/svg">
<path d="M17.7348 13.937C17.3489 13.8033 17.1802 13.5617 17.1802 13.1499C17.1878 10.4497 17.1969 7.74952 17.2045 5.04932C16.4417 4.90496 15.6789 4.75149 14.9176 4.58738C14.5287 4.50381 14.3569 4.29259 14.3569 3.90359V2.01482C14.3569 1.6243 14.5287 1.48146 14.9192 1.54072C17.668 1.96163 20.4153 2.26858 23.1626 2.48587C23.5531 2.51626 23.7233 2.73052 23.7203 3.1879C23.7157 3.92639 23.7096 4.6664 23.7051 5.40489C23.702 5.86379 23.5288 6.04462 23.1398 5.99295C22.3755 5.89418 21.6127 5.7863 20.8499 5.67081C20.8332 8.54424 20.818 11.4177 20.8013 14.2911C20.7982 14.7302 20.6265 14.8731 20.2405 14.753C19.4048 14.4962 18.5706 14.2242 17.7364 13.937H17.7348Z" fill="#E6E93A"/>
<path d="M27.1286 16.5581C26.3673 16.3925 25.6045 16.2162 24.8447 16.0278C24.4572 15.9305 24.287 15.6844 24.2916 15.2224C24.3037 13.595 24.3159 11.9676 24.3265 10.3402C24.3311 9.60016 24.5256 8.71124 24.9556 7.46219C25.4176 6.1098 25.881 4.72855 26.346 3.31994C26.4736 2.89144 26.7259 2.71365 27.1468 2.73341C28.5463 2.80027 29.9473 2.84585 31.3468 2.8732C31.7525 2.8808 32.0002 3.08594 32.1217 3.55547C32.5609 5.09779 33.0015 6.65987 33.4407 8.23866C33.8494 9.70045 34.0287 10.7505 34.0211 11.5756C34.006 13.3929 33.9908 15.2103 33.9756 17.0276C33.971 17.5443 33.7978 17.7479 33.4073 17.6917C32.6217 17.5777 31.8361 17.4546 31.052 17.3194C30.6311 17.2464 30.4457 16.9942 30.4503 16.4958C30.4579 15.5658 30.4655 14.6344 30.4746 13.7044C29.5553 13.5753 28.6359 13.4324 27.7166 13.2774C27.709 14.1785 27.7014 15.0811 27.6938 15.9822C27.6893 16.4654 27.5176 16.6432 27.1286 16.5581ZM27.9005 9.77947C28.7165 9.8828 29.5324 9.97548 30.3484 10.0591C30.1129 9.02578 29.8774 7.99858 29.6403 6.97898C29.5644 6.73585 29.4717 6.631 29.3471 6.62188C29.2164 6.61276 29.0872 6.60213 28.9565 6.5915C28.8319 6.58238 28.7377 6.67203 28.6572 6.89996C28.405 7.86942 28.1527 8.82824 27.9005 9.77947Z" fill="#E6E93A"/>
<path d="M36.171 18.0503C35.7805 18.0048 35.6103 17.7525 35.6148 17.2298C35.6209 16.4123 35.6285 15.5963 35.6346 14.7788C35.6391 14.2545 35.8124 14.0403 36.2029 14.0722C37.6039 14.1877 39.0064 14.2758 40.409 14.3412C40.6749 14.3533 40.8177 14.0768 40.8207 13.7273C40.8238 13.2258 40.6855 13.0253 40.4196 12.9721C39.6385 12.7912 38.8575 12.6043 38.078 12.4144C36.6116 12.0345 35.665 11.1258 35.6847 8.78577C35.6908 8.05183 35.6969 7.31941 35.703 6.58548C35.7227 4.20438 36.9353 2.90214 38.9654 2.84744C40.4226 2.81249 41.8798 2.76235 43.3371 2.70005C43.7276 2.68333 43.8978 2.91886 43.8932 3.47349C43.8872 4.3533 43.8811 5.2331 43.875 6.11291C43.872 6.66754 43.6972 6.91522 43.3067 6.92282C42.0926 6.94562 40.88 6.95625 39.6659 6.95473C39.4 6.95473 39.2419 7.21153 39.2389 7.60053C39.2359 7.98801 39.3893 8.24785 39.6553 8.29495C40.4302 8.44691 41.2052 8.59582 41.9817 8.74169C43.4495 9.0456 44.4129 9.91933 44.3962 12.4159C44.3916 13.1954 44.3856 13.9734 44.381 14.7514C44.3643 17.2906 43.1335 18.6369 41.1125 18.4971C39.4638 18.3862 37.8151 18.2388 36.1695 18.0488L36.171 18.0503Z" fill="#E6E93A"/>
<path d="M48.7043 18.7567C48.3123 18.7551 48.1406 18.5044 48.1436 17.9391C48.1634 14.233 48.1831 10.5269 48.2029 6.81923C47.437 6.85114 46.6712 6.87849 45.9054 6.9028C45.5148 6.91496 45.3447 6.67335 45.3477 6.11416C45.3538 5.21308 45.3583 4.31048 45.3644 3.4094C45.3674 2.85021 45.5407 2.59645 45.9312 2.57518C48.6785 2.43082 51.4273 2.25 54.1746 2.04942C54.5652 2.02055 54.7353 2.26215 54.7338 2.83957C54.7308 3.77105 54.7278 4.70404 54.7262 5.63551C54.7247 6.21293 54.5515 6.47885 54.161 6.50316C53.3951 6.55179 52.6278 6.59737 51.8619 6.63991C51.8467 10.3947 51.8315 14.1494 51.8163 17.9027C51.8148 18.4771 51.6401 18.7323 51.248 18.7384C50.4001 18.7521 49.5522 18.7582 48.7043 18.7551V18.7567Z" fill="#E6E93A"/>
<path d="M56.7791 18.5504C56.3871 18.5702 56.2138 18.324 56.2153 17.7451C56.2275 12.7398 56.2382 7.73443 56.2503 2.73062C56.2503 2.15168 56.4235 1.88272 56.814 1.85385C59.2286 1.66847 61.6431 1.47549 64.0592 1.28403C64.4497 1.25364 64.6214 1.49524 64.6229 2.07722C64.6229 2.98438 64.6244 3.89154 64.626 4.79718C64.626 5.37764 64.4542 5.64812 64.0637 5.68003C62.6247 5.79704 61.1857 5.91252 59.7467 6.02193C59.7467 6.6191 59.7467 7.21628 59.7452 7.81345C60.7633 7.73747 61.7799 7.65694 62.798 7.5764C63.1885 7.54449 63.3617 7.7861 63.3617 8.36808C63.3617 9.19775 63.3617 10.0274 63.3617 10.8571C63.3617 11.439 63.19 11.7095 62.798 11.7414C61.7784 11.825 60.7603 11.904 59.7407 11.977C59.7407 12.644 59.7407 13.3111 59.7391 13.9782C61.1827 13.8764 62.6262 13.7609 64.0698 13.6363C64.4618 13.6029 64.6351 13.8429 64.6351 14.4234C64.6351 15.3306 64.6366 16.2362 64.6381 17.1434C64.6381 17.7254 64.4664 17.9958 64.0728 18.0308C61.6416 18.2465 59.2103 18.4258 56.7791 18.5504Z" fill="#E6E93A"/>
<path d="M67.0604 17.7466C66.6669 17.7861 66.4936 17.5476 66.4936 16.9671C66.4845 11.9542 66.4754 6.94279 66.4663 1.93138C66.4663 1.35092 66.6365 1.08348 67.027 1.05309C68.6879 0.925447 70.3472 0.803882 72.008 0.689918C74.0533 0.55316 75.0121 1.58796 75.0228 3.96602C75.0243 4.32919 75.0258 4.69236 75.0289 5.05552C75.0349 6.32585 74.7417 7.14488 74.1187 7.58859C75.465 7.65241 76.0971 8.70392 76.1092 10.9164C76.1123 11.6093 76.1168 12.3022 76.1199 12.9951C76.1335 15.522 75.1839 16.8213 73.0945 17.0765C71.0842 17.3166 69.0738 17.543 67.062 17.7466H67.0604ZM69.9977 7.24213C70.4414 7.20262 70.8851 7.16463 71.3288 7.12512C71.736 7.08865 71.9229 6.77411 71.9199 6.15566C71.9199 5.94141 71.9184 5.72716 71.9169 5.5129C71.9138 4.89446 71.7254 4.6103 71.3197 4.64373C70.876 4.67868 70.4338 4.71515 69.9901 4.75162C69.9931 5.58129 69.9962 6.41095 69.9977 7.24061V7.24213ZM70.0174 13.5117C70.6967 13.4418 71.3774 13.3719 72.0566 13.299C72.4639 13.2564 72.6508 12.9373 72.6493 12.3204C72.6493 12.0226 72.6462 11.7247 72.6462 11.4284C72.6432 10.8115 72.4548 10.5547 72.0475 10.5942C71.3683 10.6611 70.6891 10.7264 70.0098 10.7917C70.0129 11.6989 70.0159 12.6046 70.019 13.5117H70.0174Z" fill="#E6E93A"/>
<path d="M82.647 16.1753C78.7615 16.7133 77.792 14.9886 77.7769 12.2489C77.7556 8.54883 77.7328 4.84725 77.71 1.1472C77.707 0.586491 77.8771 0.329689 78.2677 0.309935C79.0852 0.267388 79.9027 0.229398 80.7187 0.194449C81.1092 0.177734 81.2824 0.413261 81.287 0.963331C81.3098 4.30782 81.3341 7.65231 81.3569 10.9968C81.3614 11.5909 81.5529 12.0103 82.647 11.8903C83.7577 11.7687 83.9416 11.3159 83.937 10.7324C83.9112 7.44261 83.8869 4.15131 83.8626 0.861525C83.858 0.320572 84.013 0.0774459 84.4187 0.0668092C85.2104 0.0455358 86.0006 0.0303394 86.7922 0.0181832C87.1828 0.012105 87.356 0.243075 87.3605 0.770352C87.3894 4.25008 87.4183 7.7298 87.4456 11.2095C87.4654 13.773 86.5294 15.6298 82.647 16.1738V16.1753Z" fill="#E6E93A"/>
<path d="M90.1203 14.8428C89.7298 14.8944 89.5565 14.6893 89.552 14.1711C89.514 9.69613 89.476 5.22111 89.4395 0.744576C89.435 0.226417 89.6052 -0.00151198 89.9957 7.54516e-06C91.7492 0.00608566 93.5043 0.0395157 95.2578 0.104855C97.8805 0.22034 99.1083 1.53017 99.1265 4.09818C99.1402 6.03406 99.1554 7.96995 99.1691 9.90583C99.1873 12.4814 97.9869 13.8247 95.3733 14.1635C93.6259 14.3824 91.8738 14.6103 90.1203 14.8428ZM93.0682 10.6701C93.6866 10.6154 94.3051 10.5623 94.9235 10.5091C95.4219 10.4665 95.6529 10.1565 95.6483 9.49555C95.6347 7.9198 95.6225 6.34405 95.6088 4.76829C95.6043 4.12705 95.3672 3.8353 94.8673 3.83834C94.2489 3.8429 93.6289 3.85202 93.0104 3.86265C93.0302 6.13131 93.0484 8.40149 93.0682 10.6701Z" fill="#E6E93A"/>
<path d="M101.446 13.4508C101.058 13.4933 100.887 13.3125 100.884 12.8582C100.879 12.1501 100.875 11.4404 100.87 10.7323C100.867 10.278 101.037 10.0668 101.425 10.0455C102.817 9.96498 104.208 9.8966 105.597 9.84645C105.86 9.83582 106 9.61396 105.998 9.34652C105.998 8.96208 105.857 8.8147 105.593 8.7843C104.816 8.68098 104.04 8.57764 103.263 8.47431C101.803 8.2707 100.847 7.5778 100.835 5.53403C100.831 4.89734 100.826 4.26218 100.821 3.6255C100.806 1.54374 102.001 0.499822 104.032 0.726232C105.489 0.881224 106.947 1.06509 108.404 1.28086C108.794 1.33861 108.966 1.53918 108.966 1.93426C108.966 2.56031 108.966 3.18787 108.966 3.81392C108.966 4.209 108.794 4.36551 108.407 4.33208C107.199 4.22723 105.989 4.14062 104.78 4.0692C104.515 4.054 104.36 4.25155 104.362 4.56153C104.362 4.87151 104.52 5.08425 104.784 5.12832C105.558 5.27267 106.331 5.42006 107.103 5.56897C108.565 5.87896 109.528 6.56883 109.527 8.30717C109.527 8.8542 109.527 9.39971 109.527 9.94674C109.527 11.7109 108.326 12.767 106.334 12.963C104.708 13.1104 103.078 13.276 101.446 13.4538V13.4508Z" fill="#E6E93A"/>
<path d="M59.0246 39.9999C42.4359 39.9999 28.7693 37.4 15.1132 31.6896L14.9962 31.6364C11.1062 29.7795 0 22.2503 0 12.3414H5.83652C5.83652 16.786 12.4723 22.7943 17.075 25.0143C30.9483 30.8052 44.896 33.2334 62.2779 32.8794C74.2078 32.3126 91.5486 29.8601 106.516 21.413C111.052 18.535 115.63 12.4797 115.726 10.5727L118.526 10.5605L121.523 9.98462L121.555 10.2353L121.561 10.5317C121.602 17.0641 113.36 25.0872 109.148 27.7388L109.038 27.8041C93.1669 36.7831 74.9569 39.3708 62.474 39.9619H62.4101C61.269 39.9877 60.1399 39.9999 59.0246 39.9999Z" fill="#E6E93A"/>
</svg>
