<svg width="851" height="347" viewBox="0 0 851 347" fill="none" xmlns="http://www.w3.org/2000/svg">
<path d="M692.076 260.012C700.303 252.592 689.319 251.757 684.982 249.327C613.484 209.445 528.011 168.728 563.738 79.0034C624.873 -74.607 909.69 13.0034 840.136 194.216C759.578 404.088 276.25 364.02 98.9577 273.553C82.7392 265.28 14.6814 224.786 6.30509 214.843C-12.2639 192.787 13.4207 162.941 41.3276 169.619C50.9433 171.919 107.12 215.4 126.587 225.565C274.476 302.713 465.829 311.357 630.343 276.057C639.254 274.147 689.875 262.052 692.097 260.03L692.076 260.012ZM679.661 49.8617C641.113 55.4081 606.966 97.4047 617.308 130.609C626.582 160.363 722.953 223.098 754.621 216.216C774.985 211.801 792.571 155.169 791.78 137.917C789.665 91.7099 734.919 41.9224 679.661 49.8617Z" fill="#FBFF00" fill-opacity="0.2"/>
</svg>
