<svg width="74" height="74" viewBox="0 0 74 74" fill="none" xmlns="http://www.w3.org/2000/svg">
<rect width="74" height="74" rx="37" fill="#E6E93A"/>
<path d="M49.1855 45.1817C49.5559 44.7962 49.0621 44.7531 48.8653 44.6266C45.6434 42.556 41.7932 40.4431 43.4021 35.7859C46.1563 27.8134 58.9898 32.3602 55.8552 41.766C52.2248 52.6593 30.4472 50.5796 22.4586 45.8843C21.7279 45.4547 18.6606 43.3529 18.2842 42.837C17.4471 41.6928 18.6054 40.143 19.863 40.4893C20.2956 40.6088 22.827 42.8651 23.7052 43.3931C30.3689 47.3969 38.9908 47.8455 46.4032 46.0138C46.8047 45.9144 49.0851 45.2871 49.1865 45.1817H49.1855ZM48.6264 34.2733C46.89 34.5614 45.3503 36.7414 45.817 38.4638C46.2346 40.0085 50.5767 43.2646 52.0039 42.9073C52.9223 42.6774 53.7143 39.7385 53.6781 38.8432C53.5828 36.4454 51.1167 33.8608 48.6264 34.2733Z" fill="#070707"/>
<path d="M45.3842 23.0515C48.2588 22.4543 48.9936 27.253 45.5799 27.0091C43.2292 26.8415 43.2021 23.5052 45.3842 23.0515Z" fill="#070707"/>
<path d="M27.9588 25.544C30.3948 25.2259 31.2831 29.0781 28.6212 29.4746C25.7054 29.9092 25.4234 25.8753 27.9588 25.544Z" fill="#070707"/>
</svg>
