<svg width="86" height="89" viewBox="0 0 86 89" fill="none" xmlns="http://www.w3.org/2000/svg">
<path d="M59.6667 35.37C66.4623 40.2418 74.6271 42.8557 83 42.84V26.24C76.8116 26.24 70.8767 23.7915 66.5008 19.4332C62.125 15.0748 59.6667 9.16363 59.6667 3H43V57.78C42.9991 59.8593 42.4381 61.9002 41.3754 63.69C40.3128 65.4797 38.7874 66.9527 36.9585 67.9552C35.1295 68.9578 33.064 69.4531 30.9773 69.3897C28.8906 69.3262 26.8593 68.7063 25.0952 67.5945C23.331 66.4827 21.8987 64.9198 20.9477 63.0688C19.9966 61.2178 19.5616 59.1466 19.6881 57.0711C19.8146 54.9957 20.4979 52.992 21.6667 51.2692C22.8356 49.5464 24.4471 48.1675 26.3333 47.2764V29.56C13.0708 31.913 3 43.8941 3 57.78C3 65.2644 5.98511 72.4423 11.2986 77.7346C16.6122 83.0268 23.8189 86 31.3333 86C38.8478 86 46.0545 83.0268 51.368 77.7346C56.6816 72.4423 59.6667 65.2644 59.6667 57.78V35.37Z" stroke="black" stroke-width="5.5" stroke-linecap="round" stroke-linejoin="round"/>
</svg>
